<svg aria-hidden="true" focusable="false" data-prefix="fas" data-icon="lock-alt" role="img" xmlns="http://www.w3.org/2000/svg" viewBox="0 0 448 512" class="svg-inline--fa fa-lock-alt fa-w-14 fa-2x"><path fill="currentColor" d="M 400 224 h -24 v -72 C 376 68.2 307.8 0 224 0 S 72 68.2 72 152 v 72 H 48 c -26.5 0 -48 21.5 -48 48 v 192 c 0 26.5 21.5 48 48 48 h 352 c 26.5 0 48 -21.5 48 -48 V 272 c 0 -26.5 -21.5 -48 -48 -48 z M 264 392 c 0 22.1 -17.9 40 -40 40 s -40 -17.9 -40 -40 v -48 c 0 -22.1 17.9 -40 40 -40 s 40 17.9 40 40 v 48 z m 32 -168 H 152 v -72 c 0 -39.7 32.3 -72 72 -72 s 72 32.3 72 72 v 72 z"></path></svg>