<svg width="50px" height="50px" xmlns="http://www.w3.org/2000/svg" version="1.1" xmlns:xlink="http://www.w3.org/1999/xlink">
    <ellipse cx="25" cy="25" rx="25" ry="25" fill="rgb(0, 0, 0)"/>
    <g id="svgGroup" stroke-linecap="round" fill-rule="evenodd" font-size="9pt" stroke="#ffffff" stroke-width="0.25mm" fill="white" style="fill: white; stroke: #ffffff; stroke-width: 0.3mm"><path transform="matrix(1,0,0,1,-0.6,-2.6)" d="M 34.7 36 L 34.7 39.3 L 18 39.3 L 18 36.5 L 26.3 27.4 C 26.6 27 26.9 26.7 27.3 26.3 Q 28.2 25.1 28.7 24.3 C 28.7 24.2 28.8 24.2 28.8 24.1 C 29.1 23.7 29.3 23.2 29.4 22.7 C 29.5 22.3 29.6 21.9 29.6 21.4 C 29.6 21 29.5 20.5 29.4 20.1 C 29.3 19.5 29 19 28.6 18.5 Q 27.6 17.4 25.9 17.4 C 25.5 17.4 25 17.5 24.6 17.6 C 23.9 17.7 23.3 18.1 22.8 18.7 C 22.3 19.2 22 19.7 21.9 20.4 Q 21.7 21 21.7 21.8 C 21.7 21.8 21.7 21.9 21.7 22 L 17.5 22 C 17.5 21.1 17.6 20.2 17.9 19.4 C 18.1 18.9 18.3 18.4 18.5 17.9 C 19.2 16.7 20.2 15.7 21.5 15.1 Q 23.4 14.1 25.9 14.1 C 26.7 14.1 27.5 14.2 28.2 14.3 Q 29.6 14.6 30.7 15.3 C 31 15.4 31.4 15.7 31.6 15.9 Q 33.7 17.7 33.7 21 C 33.7 21.7 33.6 22.4 33.4 23.1 C 33.2 23.7 33 24.3 32.7 24.9 C 32.4 25.4 32.1 25.9 31.8 26.4 Q 31.3 27.1 30.6 27.9 C 30.2 28.4 29.7 29 29.2 29.5 L 23.2 36 L 34.7 36 Z" vector-effect="non-scaling-stroke"/></g>
</svg>
