<svg xmlns="http://www.w3.org/2000/svg" xmlns:xlink="http://www.w3.org/1999/xlink" version="1.1" width="256" height="256" viewBox="0 0 256 256" xml:space="preserve">
<desc>Created with Fabric.js 1.7.22</desc>
<defs>
</defs>
<g transform="matrix(0.7,0,0,0.7,128,128)" style="">
	<g style="fill: none; fill-rule: nonzero; stroke: none; stroke-width: 0; stroke-linecap: butt; stroke-linejoin: miter; stroke-dasharray: none; stroke-miterlimit: 10; opacity: 1" transform="matrix(0.8,0,0,0.8,-131.9,-143.2) scale(3.9,3.9)" >
	<path d="M 75.3 66.3 H 29.3 c -3.6 0 -6.4 -2.6 -6.7 -6.1 c -0.2 -2.4 0.8 -4.6 2.6 -5.9 L 18 21.9 c -0.2 -0.9 0 -1.8 0.6 -2.5 s 1.4 -1.1 2.3 -1.1 H 88.6 c 1 0 1.9 0.5 2.4 1.3 c 0.6 0.8 0.7 1.8 0.4 2.7 l -7.8 22.3 c -1.1 3.1 -3.8 5.4 -7.1 6 l -47.4 8.3 c 0 0 0 0 0 0 c -0.2 0 -0.6 0.1 -0.6 0.8 c 0.1 0.6 0.5 0.6 0.7 0.6 h 46 c 1.7 0 3 1.3 3 3 S 77 66.3 75.3 66.3 z" style="fill: rgb(255, 255, 255); fill-rule: nonzero; stroke: none; stroke-width: 1; stroke-linecap: butt; stroke-linejoin: miter; stroke-dasharray: none; stroke-miterlimit: 10; opacity: 1" transform="matrix(1,0,0,1,0,0)" stroke-linecap="round" />
	<circle cx="29.8" cy="76.7" r="6.5" style="fill: rgb(255, 255, 255); fill-rule: nonzero; stroke: none; stroke-width: 1; stroke-linecap: butt; stroke-linejoin: miter; stroke-dasharray: none; stroke-miterlimit: 10; opacity: 1" transform="matrix(1,0,0,1,0,0)"/>
	<circle cx="69.9" cy="76.7" r="6.5" style="fill: rgb(255, 255, 255); fill-rule: nonzero; stroke: none; stroke-width: 1; stroke-linecap: butt; stroke-linejoin: miter; stroke-dasharray: none; stroke-miterlimit: 10; opacity: 1" transform="matrix(1,0,0,1,0,0)"/>
	<path d="M 20.9 24.3 c -1.4 0 -2.6 -0.9 -2.9 -2.3 l -1.4 -6.2 c -0.6 -2.5 -2.7 -4.2 -5.3 -4.2 H 4.6 c -1.7 0 -3 -1.3 -3 -3 s 1.3 -3 3 -3 h 6.7 c 5.4 0 9.9 3.7 11.1 8.9 l 1.4 6.2 c 0.4 1.6 -0.7 3.2 -2.3 3.6 C 21.3 24.2 21.1 24.3 20.9 24.3 z" style="fill: rgb(255, 255, 255); fill-rule: nonzero; stroke: none; stroke-width: 1; stroke-linecap: butt; stroke-linejoin: miter; stroke-dasharray: none; stroke-miterlimit: 10; opacity: 1" transform="matrix(1,0,0,1,0,0)" stroke-linecap="round" />
</g>
</g>
</svg>